<svg width="16" height="16" viewBox="0 0 16 16" fill="none" xmlns="http://www.w3.org/2000/svg">
<mask id="mask0_1_416" style="mask-type:alpha" maskUnits="userSpaceOnUse" x="0" y="0" width="16" height="16">
<rect width="16" height="16" fill="#D9D9D9"/>
</mask>
<g mask="url(#mask0_1_416)">
<path d="M8.16667 7.21667L8.78333 7.83333L12.4 4.21667L11.7833 3.6L8.16667 7.21667ZM3.33333 12.6667H3.95L7.83333 8.78333L7.21667 8.16667L3.33333 12.05V12.6667ZM9.25 9.25L6.75 6.75L9.53333 3.96667L9.05 3.48333L5.86667 6.66667C5.73333 6.8 5.57778 6.86667 5.4 6.86667C5.22222 6.86667 5.06667 6.8 4.93333 6.66667C4.8 6.53333 4.73333 6.375 4.73333 6.19167C4.73333 6.00833 4.8 5.85 4.93333 5.71667L8.1 2.55C8.36667 2.28333 8.68056 2.15 9.04167 2.15C9.40278 2.15 9.71667 2.28333 9.98333 2.55L10.4667 3.03333L11.3 2.2C11.4333 2.06667 11.5917 2 11.775 2C11.9583 2 12.1167 2.06667 12.25 2.2L13.8 3.75C13.9333 3.88333 14 4.04167 14 4.225C14 4.40833 13.9333 4.56667 13.8 4.7L9.25 9.25ZM2.66667 14C2.47778 14 2.31944 13.9361 2.19167 13.8083C2.06389 13.6806 2 13.5222 2 13.3333V12.05C2 11.8722 2.03333 11.7028 2.1 11.5417C2.16667 11.3806 2.26111 11.2389 2.38333 11.1167L6.75 6.75L9.25 9.25L4.88333 13.6167C4.76111 13.7389 4.61944 13.8333 4.45833 13.9C4.29722 13.9667 4.12778 14 3.95 14H2.66667Z" fill="#005DFF"/>
</g>
</svg>
