<svg width="16" height="16" viewBox="0 0 16 16" fill="none" xmlns="http://www.w3.org/2000/svg">
<mask id="mask0_50_181" style="mask-type:alpha" maskUnits="userSpaceOnUse" x="0" y="0" width="16" height="16">
<rect width="16" height="16" fill="#D9D9D9"/>
</mask>
<g mask="url(#mask0_50_181)">
<path d="M4 14.6667C3.44444 14.6667 2.97222 14.4722 2.58333 14.0833C2.19444 13.6945 2 13.2222 2 12.6667V12C2 11.6333 2.13056 11.3195 2.39167 11.0583C2.65278 10.7972 2.96667 10.6667 3.33333 10.6667H4V2.66668C4 2.30001 4.13056 1.98612 4.39167 1.72501C4.65278 1.4639 4.96667 1.33334 5.33333 1.33334H12.6667C13.0333 1.33334 13.3472 1.4639 13.6083 1.72501C13.8694 1.98612 14 2.30001 14 2.66668V12.6667C14 13.2222 13.8056 13.6945 13.4167 14.0833C13.0278 14.4722 12.5556 14.6667 12 14.6667H4ZM12 13.3333C12.1889 13.3333 12.3472 13.2695 12.475 13.1417C12.6028 13.0139 12.6667 12.8556 12.6667 12.6667V2.66668H5.33333V10.6667H10C10.3667 10.6667 10.6806 10.7972 10.9417 11.0583C11.2028 11.3195 11.3333 11.6333 11.3333 12V12.6667C11.3333 12.8556 11.3972 13.0139 11.525 13.1417C11.6528 13.2695 11.8111 13.3333 12 13.3333ZM6.66667 6.00001C6.47778 6.00001 6.31944 5.93612 6.19167 5.80834C6.06389 5.68057 6 5.52223 6 5.33334C6 5.14445 6.06389 4.98612 6.19167 4.85834C6.31944 4.73057 6.47778 4.66668 6.66667 4.66668H11.3333C11.5222 4.66668 11.6806 4.73057 11.8083 4.85834C11.9361 4.98612 12 5.14445 12 5.33334C12 5.52223 11.9361 5.68057 11.8083 5.80834C11.6806 5.93612 11.5222 6.00001 11.3333 6.00001H6.66667ZM6.66667 8.00001C6.47778 8.00001 6.31944 7.93612 6.19167 7.80834C6.06389 7.68057 6 7.52223 6 7.33334C6 7.14445 6.06389 6.98612 6.19167 6.85834C6.31944 6.73057 6.47778 6.66668 6.66667 6.66668H11.3333C11.5222 6.66668 11.6806 6.73057 11.8083 6.85834C11.9361 6.98612 12 7.14445 12 7.33334C12 7.52223 11.9361 7.68057 11.8083 7.80834C11.6806 7.93612 11.5222 8.00001 11.3333 8.00001H6.66667ZM4 13.3333H10V12H3.33333V12.6667C3.33333 12.8556 3.39722 13.0139 3.525 13.1417C3.65278 13.2695 3.81111 13.3333 4 13.3333ZM4 13.3333H3.33333H10H4Z" fill="black" fill-opacity="0.45"/>
</g>
</svg>
