<svg width="16" height="16" viewBox="0 0 16 16" fill="none" xmlns="http://www.w3.org/2000/svg">
<mask id="mask0_50_173" style="mask-type:alpha" maskUnits="userSpaceOnUse" x="0" y="0" width="16" height="16">
<rect width="16" height="16" fill="#D9D9D9"/>
</mask>
<g mask="url(#mask0_50_173)">
<path d="M7.33333 12V12.3333C7.33333 12.4222 7.36667 12.5 7.43333 12.5667C7.5 12.6333 7.57778 12.6667 7.66667 12.6667H8.33333C8.42222 12.6667 8.5 12.6333 8.56667 12.5667C8.63333 12.5 8.66667 12.4222 8.66667 12.3333V12H9.33333C9.52222 12 9.68056 11.9361 9.80833 11.8083C9.93611 11.6806 10 11.5222 10 11.3333V9.33333C10 9.14444 9.93611 8.98611 9.80833 8.85833C9.68056 8.73055 9.52222 8.66666 9.33333 8.66666H7.33333V7.99999H9.33333C9.52222 7.99999 9.68056 7.93611 9.80833 7.80833C9.93611 7.68055 10 7.52222 10 7.33333C10 7.14444 9.93611 6.98611 9.80833 6.85833C9.68056 6.73055 9.52222 6.66666 9.33333 6.66666H8.66667V6.33333C8.66667 6.24444 8.63333 6.16666 8.56667 6.09999C8.5 6.03333 8.42222 5.99999 8.33333 5.99999H7.66667C7.57778 5.99999 7.5 6.03333 7.43333 6.09999C7.36667 6.16666 7.33333 6.24444 7.33333 6.33333V6.66666H6.66667C6.47778 6.66666 6.31944 6.73055 6.19167 6.85833C6.06389 6.98611 6 7.14444 6 7.33333V9.33333C6 9.52222 6.06389 9.68055 6.19167 9.80833C6.31944 9.93611 6.47778 9.99999 6.66667 9.99999H8.66667V10.6667H6.66667C6.47778 10.6667 6.31944 10.7305 6.19167 10.8583C6.06389 10.9861 6 11.1444 6 11.3333C6 11.5222 6.06389 11.6806 6.19167 11.8083C6.31944 11.9361 6.47778 12 6.66667 12H7.33333ZM4 14.6667C3.63333 14.6667 3.31944 14.5361 3.05833 14.275C2.79722 14.0139 2.66667 13.7 2.66667 13.3333V2.66666C2.66667 2.29999 2.79722 1.98611 3.05833 1.72499C3.31944 1.46388 3.63333 1.33333 4 1.33333H10L13.3333 4.66666V13.3333C13.3333 13.7 13.2028 14.0139 12.9417 14.275C12.6806 14.5361 12.3667 14.6667 12 14.6667H4ZM4 13.3333H12V5.33333H10C9.81111 5.33333 9.65278 5.26944 9.525 5.14166C9.39722 5.01388 9.33333 4.85555 9.33333 4.66666V2.66666H4V13.3333Z" fill="black" fill-opacity="0.45"/>
</g>
</svg>
