<svg width="16" height="16" viewBox="0 0 16 16" fill="none" xmlns="http://www.w3.org/2000/svg">
<mask id="mask0_50_206" style="mask-type:alpha" maskUnits="userSpaceOnUse" x="0" y="0" width="16" height="16">
<rect width="16" height="16" fill="#D9D9D9"/>
</mask>
<g mask="url(#mask0_50_206)">
<path d="M6 8.00001C5.81111 8.00001 5.65278 7.93612 5.525 7.80834C5.39722 7.68057 5.33333 7.52223 5.33333 7.33334C5.33333 7.14445 5.39722 6.98612 5.525 6.85834C5.65278 6.73057 5.81111 6.66668 6 6.66668H10C10.1889 6.66668 10.3472 6.73057 10.475 6.85834C10.6028 6.98612 10.6667 7.14445 10.6667 7.33334C10.6667 7.52223 10.6028 7.68057 10.475 7.80834C10.3472 7.93612 10.1889 8.00001 10 8.00001H6ZM6 5.33334C5.81111 5.33334 5.65278 5.26945 5.525 5.14168C5.39722 5.0139 5.33333 4.85557 5.33333 4.66668C5.33333 4.47779 5.39722 4.31945 5.525 4.19168C5.65278 4.0639 5.81111 4.00001 6 4.00001H10C10.1889 4.00001 10.3472 4.0639 10.475 4.19168C10.6028 4.31945 10.6667 4.47779 10.6667 4.66668C10.6667 4.85557 10.6028 5.0139 10.475 5.14168C10.3472 5.26945 10.1889 5.33334 10 5.33334H6ZM4 9.33334H9C9.32222 9.33334 9.62222 9.40279 9.9 9.54168C10.1778 9.68056 10.4111 9.87779 10.6 10.1333L12 11.9667V2.66668H4V9.33334ZM4 13.3333H11.3667L9.55 10.95C9.48333 10.8611 9.40278 10.7917 9.30833 10.7417C9.21389 10.6917 9.11111 10.6667 9 10.6667H4V13.3333ZM12 14.6667H4C3.63333 14.6667 3.31944 14.5361 3.05833 14.275C2.79722 14.0139 2.66667 13.7 2.66667 13.3333V2.66668C2.66667 2.30001 2.79722 1.98612 3.05833 1.72501C3.31944 1.4639 3.63333 1.33334 4 1.33334H12C12.3667 1.33334 12.6806 1.4639 12.9417 1.72501C13.2028 1.98612 13.3333 2.30001 13.3333 2.66668V13.3333C13.3333 13.7 13.2028 14.0139 12.9417 14.275C12.6806 14.5361 12.3667 14.6667 12 14.6667Z" fill="black" fill-opacity="0.45"/>
</g>
</svg>
