<svg width="16" height="16" viewBox="0 0 16 16" fill="none" xmlns="http://www.w3.org/2000/svg">
<mask id="mask0_50_148" style="mask-type:alpha" maskUnits="userSpaceOnUse" x="0" y="0" width="16" height="16">
<rect width="16" height="16" fill="#D9D9D9"/>
</mask>
<g mask="url(#mask0_50_148)">
<path d="M2 14C1.81111 14 1.65278 13.9361 1.525 13.8083C1.39722 13.6806 1.33333 13.5222 1.33333 13.3333C1.33333 13.1444 1.39722 12.9861 1.525 12.8583C1.65278 12.7306 1.81111 12.6667 2 12.6667H14C14.1889 12.6667 14.3472 12.7306 14.475 12.8583C14.6028 12.9861 14.6667 13.1444 14.6667 13.3333C14.6667 13.5222 14.6028 13.6806 14.475 13.8083C14.3472 13.9361 14.1889 14 14 14H2ZM3 12C2.72222 12 2.48611 11.9028 2.29167 11.7083C2.09722 11.5139 2 11.2778 2 11V8.33333C2 8.05556 2.09722 7.81944 2.29167 7.625C2.48611 7.43056 2.72222 7.33333 3 7.33333C3.27778 7.33333 3.51389 7.43056 3.70833 7.625C3.90278 7.81944 4 8.05556 4 8.33333V11C4 11.2778 3.90278 11.5139 3.70833 11.7083C3.51389 11.9028 3.27778 12 3 12ZM6.33333 12C6.05556 12 5.81944 11.9028 5.625 11.7083C5.43056 11.5139 5.33333 11.2778 5.33333 11V5C5.33333 4.72222 5.43056 4.48611 5.625 4.29167C5.81944 4.09722 6.05556 4 6.33333 4C6.61111 4 6.84722 4.09722 7.04167 4.29167C7.23611 4.48611 7.33333 4.72222 7.33333 5V11C7.33333 11.2778 7.23611 11.5139 7.04167 11.7083C6.84722 11.9028 6.61111 12 6.33333 12ZM9.66667 12C9.38889 12 9.15278 11.9028 8.95833 11.7083C8.76389 11.5139 8.66667 11.2778 8.66667 11V7C8.66667 6.72222 8.76389 6.48611 8.95833 6.29167C9.15278 6.09722 9.38889 6 9.66667 6C9.94444 6 10.1806 6.09722 10.375 6.29167C10.5694 6.48611 10.6667 6.72222 10.6667 7V11C10.6667 11.2778 10.5694 11.5139 10.375 11.7083C10.1806 11.9028 9.94444 12 9.66667 12ZM13 12C12.7222 12 12.4861 11.9028 12.2917 11.7083C12.0972 11.5139 12 11.2778 12 11V3C12 2.72222 12.0972 2.48611 12.2917 2.29167C12.4861 2.09722 12.7222 2 13 2C13.2778 2 13.5139 2.09722 13.7083 2.29167C13.9028 2.48611 14 2.72222 14 3V11C14 11.2778 13.9028 11.5139 13.7083 11.7083C13.5139 11.9028 13.2778 12 13 12Z" fill="black" fill-opacity="0.45"/>
</g>
</svg>
