<svg width="16" height="16" viewBox="0 0 16 16" fill="none" xmlns="http://www.w3.org/2000/svg">
<mask id="mask0_50_189" style="mask-type:alpha" maskUnits="userSpaceOnUse" x="0" y="0" width="16" height="16">
<rect width="16" height="16" fill="#D9D9D9"/>
</mask>
<g mask="url(#mask0_50_189)">
<path d="M8 14C7.81111 14 7.65278 13.9361 7.525 13.8083C7.39722 13.6806 7.33333 13.5222 7.33333 13.3333C7.33333 13.1444 7.39722 12.9861 7.525 12.8583C7.65278 12.7306 7.81111 12.6667 8 12.6667H12.6667V7.93333C12.6667 6.63333 12.2139 5.53056 11.3083 4.625C10.4028 3.71944 9.3 3.26667 8 3.26667C6.7 3.26667 5.59722 3.71944 4.69167 4.625C3.78611 5.53056 3.33333 6.63333 3.33333 7.93333V11.3333C3.33333 11.5222 3.26945 11.6806 3.14167 11.8083C3.01389 11.9361 2.85556 12 2.66667 12C2.3 12 1.98611 11.8694 1.725 11.6083C1.46389 11.3472 1.33333 11.0333 1.33333 10.6667V9.33333C1.33333 9.1 1.39167 8.88056 1.50833 8.675C1.625 8.46944 1.78889 8.30556 2 8.18333L2.05 7.3C2.13889 6.54444 2.35833 5.84444 2.70833 5.2C3.05833 4.55556 3.49722 3.99444 4.025 3.51667C4.55278 3.03889 5.15833 2.66667 5.84167 2.4C6.525 2.13333 7.24444 2 8 2C8.75556 2 9.47222 2.13333 10.15 2.4C10.8278 2.66667 11.4333 3.03611 11.9667 3.50833C12.5 3.98056 12.9389 4.53889 13.2833 5.18333C13.6278 5.82778 13.85 6.52778 13.95 7.28333L14 8.15C14.2111 8.25 14.375 8.4 14.4917 8.6C14.6083 8.8 14.6667 9.01111 14.6667 9.23333V10.7667C14.6667 10.9889 14.6083 11.2 14.4917 11.4C14.375 11.6 14.2111 11.75 14 11.85V12.6667C14 13.0333 13.8694 13.3472 13.6083 13.6083C13.3472 13.8694 13.0333 14 12.6667 14H8ZM6 9.33333C5.81111 9.33333 5.65278 9.26944 5.525 9.14167C5.39722 9.01389 5.33333 8.85556 5.33333 8.66667C5.33333 8.47778 5.39722 8.31944 5.525 8.19167C5.65278 8.06389 5.81111 8 6 8C6.18889 8 6.34722 8.06389 6.475 8.19167C6.60278 8.31944 6.66667 8.47778 6.66667 8.66667C6.66667 8.85556 6.60278 9.01389 6.475 9.14167C6.34722 9.26944 6.18889 9.33333 6 9.33333ZM10 9.33333C9.81111 9.33333 9.65278 9.26944 9.525 9.14167C9.39722 9.01389 9.33333 8.85556 9.33333 8.66667C9.33333 8.47778 9.39722 8.31944 9.525 8.19167C9.65278 8.06389 9.81111 8 10 8C10.1889 8 10.3472 8.06389 10.475 8.19167C10.6028 8.31944 10.6667 8.47778 10.6667 8.66667C10.6667 8.85556 10.6028 9.01389 10.475 9.14167C10.3472 9.26944 10.1889 9.33333 10 9.33333ZM4.01667 8.3C3.93889 7.12222 4.29445 6.11111 5.08333 5.26667C5.87222 4.42222 6.85556 4 8.03333 4C9.02222 4 9.89167 4.31389 10.6417 4.94167C11.3917 5.56944 11.8444 6.37222 12 7.35C10.9889 7.33889 10.0583 7.06667 9.20833 6.53333C8.35833 6 7.70556 5.27778 7.25 4.36667C7.07222 5.25556 6.69722 6.04722 6.125 6.74167C5.55278 7.43611 4.85 7.95556 4.01667 8.3Z" fill="black" fill-opacity="0.45"/>
</g>
</svg>
