<svg width="16" height="16" viewBox="0 0 16 16" fill="none" xmlns="http://www.w3.org/2000/svg">
<mask id="mask0_50_292" style="mask-type:alpha" maskUnits="userSpaceOnUse" x="0" y="0" width="16" height="16">
<rect width="16" height="16" fill="#D9D9D9"/>
</mask>
<g mask="url(#mask0_50_292)">
<path d="M9.66667 12C9.2 12 8.80556 11.8389 8.48333 11.5167C8.16111 11.1945 8 10.8 8 10.3334C8 9.86671 8.16111 9.47226 8.48333 9.15004C8.80556 8.82782 9.2 8.66671 9.66667 8.66671C10.1333 8.66671 10.5278 8.82782 10.85 9.15004C11.1722 9.47226 11.3333 9.86671 11.3333 10.3334C11.3333 10.8 11.1722 11.1945 10.85 11.5167C10.5278 11.8389 10.1333 12 9.66667 12ZM3.33333 14.6667C2.96667 14.6667 2.65278 14.5362 2.39167 14.275C2.13056 14.0139 2 13.7 2 13.3334V4.00004C2 3.63337 2.13056 3.31949 2.39167 3.05837C2.65278 2.79726 2.96667 2.66671 3.33333 2.66671H4V2.00004C4 1.81115 4.06389 1.65282 4.19167 1.52504C4.31944 1.39726 4.47778 1.33337 4.66667 1.33337C4.85556 1.33337 5.01389 1.39726 5.14167 1.52504C5.26944 1.65282 5.33333 1.81115 5.33333 2.00004V2.66671H10.6667V2.00004C10.6667 1.81115 10.7306 1.65282 10.8583 1.52504C10.9861 1.39726 11.1444 1.33337 11.3333 1.33337C11.5222 1.33337 11.6806 1.39726 11.8083 1.52504C11.9361 1.65282 12 1.81115 12 2.00004V2.66671H12.6667C13.0333 2.66671 13.3472 2.79726 13.6083 3.05837C13.8694 3.31949 14 3.63337 14 4.00004V13.3334C14 13.7 13.8694 14.0139 13.6083 14.275C13.3472 14.5362 13.0333 14.6667 12.6667 14.6667H3.33333ZM3.33333 13.3334H12.6667V6.66671H3.33333V13.3334ZM3.33333 5.33337H12.6667V4.00004H3.33333V5.33337Z" fill="#898989"/>
</g>
</svg>
